# File created by Blade
# Date/Time:  Tue Apr 07 21:36:59 2015
# Frame Rate: 120.000 fps
#------------------------------------------------------
:FULLY-SPECIFIED
:DEGREES
281
root 7.069712 32.737318 10.197096 7.211887 -85.391719 10.531193
Spine -1.165722 -6.018207 0.433450
Head 8.032547 -7.272218 -0.877554
LeftShoulder -6.960227 37.301870 12.569729
LeftArm 66.374979 16.455675 -71.051158
LeftForeArm -8.273604 -0.000000 16.045384
LeftHand 9.433061 -0.000000 -0.887685
LeftHandThumb1 -26.253704 0.000000 33.147579
RightShoulder 2.095693 -1.113929 -19.093333
RightArm 22.152630 -17.697858 83.786767
RightForeArm 2.629787 -0.000000 15.943236
RightHand 6.797010 -0.000000 4.541952
RightHandThumb1 -24.326973 -0.000000 -32.862282
LeftUpLeg -34.981954 -5.981945 2.920901
LeftLeg 37.321483 -0.000000 -0.000000
LeftFoot -15.867681 4.263140 -26.266304
LeftToeBase -9.902186 -0.000000 0.000000
RightUpLeg -27.177995 2.841017 -1.761906
RightLeg 7.335754 -0.000000 -0.000000
RightFoot -4.636337 -8.344884 11.544268
RightToeBase -2.106645 -0.000000 0.000000
282
root 7.039655 32.743461 10.186923 7.066748 -85.306757 10.721448
Spine -1.193429 -6.111700 0.449239
Head 7.868294 -7.223191 -0.869761
LeftShoulder -6.760100 37.197900 12.767620
LeftArm 66.472438 16.467388 -71.068764
LeftForeArm -8.474388 0.000000 16.051650
LeftHand 9.545386 -0.000000 -0.897826
LeftHandThumb1 -26.253704 0.000000 33.147579
RightShoulder 2.168565 -0.977934 -19.195024
RightArm 22.284330 -17.669182 83.706364
RightForeArm 2.871397 -0.000000 16.397469
RightHand 6.803860 -0.000000 4.631434
RightHandThumb1 -24.326973 -0.000000 -32.862282
LeftUpLeg -35.120524 -6.052599 2.830293
LeftLeg 36.153620 -0.000000 -0.000000
LeftFoot -15.452889 3.212509 -26.655194
LeftToeBase -10.331677 -0.000000 0.000000
RightUpLeg -27.084141 2.777022 -1.757451
RightLeg 7.180882 -0.000000 -0.000000
RightFoot -4.674274 -8.345119 11.636241
RightToeBase -2.162652 -0.000000 0.000000
283
root 7.009756 32.748201 10.177775 7.078398 -85.214371 10.764267
Spine -1.238310 -6.198798 0.472613
Head 7.715227 -7.191871 -0.846539
LeftShoulder -6.564543 37.076594 12.956583
LeftArm 66.596812 16.492375 -71.072828
LeftForeArm -8.540807 0.000000 15.988657
LeftHand 9.655521 0.000000 -0.968691
LeftHandThumb1 -26.253704 0.000000 33.147579
RightShoulder 2.232631 -0.840047 -19.280348
RightArm 22.399338 -17.621351 83.634591
RightForeArm 2.849010 -0.000000 16.822445
RightHand 6.877433 0.000000 4.523843
RightHandThumb1 -24.326973 -0.000000 -32.862282
LeftUpLeg -35.234352 -6.131009 2.774211
LeftLeg 34.945196 -0.000000 -0.000000
LeftFoot -15.042084 2.170725 -27.223145
LeftToeBase -10.184360 -0.000000 0.000000
RightUpLeg -26.991599 2.798317 -1.764138
RightLeg 7.021905 -0.000000 -0.000000
RightFoot -4.742146 -8.508083 11.607842
RightToeBase -2.109119 -0.000000 0.000000
284
root 6.979341 32.752353 10.170248 7.410940 -85.138871 10.494789
Spine -1.294328 -6.303163 0.528584
Head 7.549581 -7.124658 -0.835600
LeftShoulder -6.384875 36.899991 13.132291
LeftArm 66.693765 16.579300 -71.012075
LeftForeArm -8.747923 -0.000000 15.908732
LeftHand 9.582950 -0.000000 -0.794634
LeftHandThumb1 -26.253704 0.000000 33.147579
RightShoulder 2.303153 -0.677324 -19.350889
RightArm 22.510461 -17.551971 83.583277
RightForeArm 2.832720 -0.000000 17.227735
RightHand 6.788080 -0.000000 4.712282
RightHandThumb1 -24.326973 -0.000000 -32.862282
LeftUpLeg -35.340136 -6.137031 2.720078
LeftLeg 33.673791 -0.000000 -0.000000
LeftFoot -14.537735 1.206188 -27.773817
LeftToeBase -9.473505 -0.000000 0.000000
RightUpLeg -26.901822 2.881341 -1.776308
RightLeg 6.838387 -0.000000 -0.000000
RightFoot -4.782198 -8.688339 11.606311
RightToeBase -2.068099 -0.000000 0.000000
285
root 6.949909 32.754348 10.163806 8.155479 -85.093666 9.810289
Spine -1.351735 -6.393341 0.618119
Head 7.396617 -7.055336 -0.814596
LeftShoulder -6.238272 36.782486 13.281195
LeftArm 66.831367 16.630574 -70.987381
LeftForeArm -8.699105 -0.000000 15.747656
LeftHand 9.965317 -0.000000 -0.739183
LeftHandThumb1 -26.253704 0.000000 33.147579
RightShoulder 2.395398 -0.522957 -19.420688
RightArm 22.624043 -17.399112 83.562394
RightForeArm 2.907739 -0.000000 17.615185
RightHand 6.804167 -0.000000 4.611578
RightHandThumb1 -24.326973 -0.000000 -32.862282
LeftUpLeg -35.445690 -6.040726 2.672980
LeftLeg 32.471100 -0.000000 -0.000000
LeftFoot -13.775807 0.544480 -28.510258
LeftToeBase -9.904565 -0.000000 0.000000
RightUpLeg -26.818630 2.923060 -1.725033
RightLeg 6.659212 -0.000000 -0.000000
RightFoot -4.788905 -8.794889 11.601707
RightToeBase -1.945988 -0.000000 0.000000
